<svg width="42" height="42" viewBox="0 0 42 42" fill="none" xmlns="http://www.w3.org/2000/svg">
<path fill-rule="evenodd" clip-rule="evenodd" d="M21.8033 12.4443H6.22221C4.98453 12.4443 3.79755 12.936 2.92238 13.8112C2.04721 14.6863 1.55554 15.8733 1.55554 17.111V29.5554C1.55554 30.7931 2.04721 31.9801 2.92238 32.8553C3.79755 33.7304 4.98453 34.2221 6.22221 34.2221H31.1111C32.3488 34.2221 33.5358 33.7304 34.4109 32.8553C35.2861 31.9801 35.7778 30.7931 35.7778 29.5554V23.0998C35.0238 23.2529 34.2435 23.3332 33.4444 23.3332C33.1831 23.3332 32.9237 23.3246 32.6667 23.3077V29.5554C32.6667 29.968 32.5028 30.3637 32.211 30.6554C31.9193 30.9471 31.5237 31.111 31.1111 31.111H6.22221C5.80965 31.111 5.41399 30.9471 5.12226 30.6554C4.83054 30.3637 4.66665 29.968 4.66665 29.5554V17.111C4.66665 16.6984 4.83054 16.3028 5.12226 16.0111C5.41399 15.7193 5.80965 15.5554 6.22221 15.5554H22.4416C22.0941 14.5722 21.8746 13.5285 21.8033 12.4443ZM27.6787 21.8112C28.2182 22.1185 28.7847 22.3841 29.3737 22.6034C29.492 22.8261 29.5555 23.0764 29.5555 23.3332C29.5555 23.6409 29.4643 23.9416 29.2934 24.1974C29.1225 24.4533 28.8795 24.6526 28.5953 24.7704C28.311 24.8881 27.9983 24.9189 27.6965 24.8589C27.3948 24.7989 27.1176 24.6507 26.9 24.4332C26.6825 24.2156 26.5343 23.9384 26.4743 23.6367C26.4143 23.3349 26.4451 23.0222 26.5628 22.7379C26.6806 22.4537 26.88 22.2108 27.1358 22.0398C27.3013 21.9292 27.4857 21.8519 27.6787 21.8112ZM8.4691 22.0398C8.72491 21.8689 9.02566 21.7777 9.33332 21.7777C9.74588 21.7777 10.1415 21.9416 10.4333 22.2333C10.725 22.525 10.8889 22.9207 10.8889 23.3332C10.8889 23.6409 10.7976 23.9416 10.6267 24.1974C10.4558 24.4533 10.2128 24.6526 9.9286 24.7704C9.64436 24.8881 9.33159 24.9189 9.02985 24.8589C8.7281 24.7989 8.45092 24.6507 8.23338 24.4332C8.01583 24.2156 7.86767 23.9384 7.80765 23.6367C7.74763 23.3349 7.77844 23.0222 7.89617 22.7379C8.01391 22.4537 8.21329 22.2108 8.4691 22.0398ZM16.074 19.453C16.8414 18.9403 17.7437 18.6666 18.6667 18.6666C19.9043 18.6666 21.0913 19.1582 21.9665 20.0334C22.8417 20.9086 23.3333 22.0955 23.3333 23.3332C23.3333 24.2562 23.0596 25.1585 22.5468 25.9259C22.0341 26.6933 21.3052 27.2915 20.4525 27.6447C19.5998 27.9979 18.6615 28.0903 17.7562 27.9102C16.851 27.7302 16.0195 27.2857 15.3668 26.6331C14.7142 25.9804 14.2697 25.1489 14.0897 24.2436C13.9096 23.3384 14.002 22.4001 14.3552 21.5474C14.7084 20.6946 15.3066 19.9658 16.074 19.453ZM17.8024 24.6266C18.0582 24.7975 18.359 24.8888 18.6667 24.8888C19.0792 24.8888 19.4749 24.7249 19.7666 24.4332C20.0583 24.1414 20.2222 23.7458 20.2222 23.3332C20.2222 23.0256 20.131 22.7248 19.96 22.469C19.7891 22.2132 19.5462 22.0138 19.2619 21.8961C18.9777 21.7783 18.6649 21.7475 18.3632 21.8076C18.0614 21.8676 17.7843 22.0157 17.5667 22.2333C17.3492 22.4508 17.201 22.728 17.141 23.0298C17.081 23.3315 17.1118 23.6443 17.2295 23.9285C17.3472 24.2128 17.5466 24.4557 17.8024 24.6266Z" fill="#532178"/>
<path d="M32.6667 5.58504C36.4493 5.58504 39.5261 8.66305 39.5261 12.4449C39.5261 16.2273 36.4493 19.304 32.6667 19.304C28.8838 19.304 25.8071 16.2273 25.8071 12.4449C25.8071 8.6628 28.8838 5.58504 32.6667 5.58504ZM32.6667 3.11108C27.5117 3.11108 23.3334 7.29043 23.3334 12.4449C23.3334 17.5994 27.5117 21.7777 32.6667 21.7777C37.8217 21.7777 42 17.5994 42 12.4449C42 7.29043 37.8217 3.11108 32.6667 3.11108V3.11108Z" fill="#532178"/>
<path d="M37.1742 10.4171L36.1007 9.4679C35.896 9.28619 35.5285 9.29056 35.3318 9.4679L31.8923 12.5057L30.0017 10.8362C29.797 10.6555 29.438 10.6555 29.2334 10.8362L28.1612 11.7832C28.11 11.8278 28.0695 11.8809 28.0418 11.9395C28.0141 11.998 27.9999 12.0609 28 12.1243C28 12.252 28.0562 12.3736 28.1592 12.4634L31.5017 15.4149C31.6047 15.5058 31.7411 15.5555 31.8863 15.5555H31.9078C32.049 15.5538 32.1839 15.5033 32.2835 15.4149L37.1745 11.096C37.2763 11.0059 37.3334 10.8838 37.3333 10.7565C37.3333 10.6292 37.2761 10.5072 37.1742 10.4171V10.4171Z" fill="#532178"/>
</svg>